<?xml version="1.0" encoding="UTF-8"?><svg id="Layer_2" xmlns="http://www.w3.org/2000/svg" viewBox="0 0 358 315.11"><defs><style>.cls-1{fill:#fff;}.cls-2{fill:#2ab209;}</style></defs><g id="_ÎÓÈ_1"><path class="cls-2" d="M162.44,9.56L2.59,286.43c-7.36,12.75,1.84,28.68,16.56,28.68H338.85c14.72,0,23.92-15.93,16.56-28.68L195.56,9.56c-7.36-12.75-25.76-12.75-33.12,0L2.59,286.43c-7.36,12.75,1.84,28.68,16.56,28.68H338.85c14.72,0,23.92-15.93,16.56-28.68L195.56,9.56c-7.36-12.75-25.76-12.75-33.12,0Z"/><g><circle class="cls-1" cx="179" cy="261.33" r="16.04"/><path class="cls-1" d="M179,102.64h0c-11.47,0-20.48,9.82-19.49,21.24l7.48,87.03c.54,6.23,5.75,11.02,12.01,11.02h0c6.26,0,11.47-4.79,12.01-11.02l7.48-87.03c.98-11.42-8.03-21.24-19.49-21.24Z"/></g></g></svg>