<?xml version="1.0" encoding="UTF-8"?><svg xmlns="http://www.w3.org/2000/svg" xmlns:xlink="http://www.w3.org/1999/xlink" version="1.1" width="256" height="256" viewBox="0 0 256 256" xml:space="preserve">

<defs>
</defs>
<g style="stroke: none; stroke-width: 0; stroke-dasharray: none; stroke-linecap: butt; stroke-linejoin: miter; stroke-miterlimit: 10; fill: none; fill-rule: nonzero; opacity: 1;" transform="translate(1.4065934065934016 1.4065934065934016) scale(2.81 2.81)" >
	<circle cx="45" cy="45" r="45" style="stroke: none; stroke-width: 1; stroke-dasharray: none; stroke-linecap: butt; stroke-linejoin: miter; stroke-miterlimit: 10; fill: rgb(0,183,126); fill-rule: nonzero; opacity: 1;" transform="  matrix(1 0 0 1 0 0) "/>
	<path d="M 64.994 39.97 h -9.891 l -1.44 -8.976 c -0.001 -0.005 -0.003 -0.009 -0.004 -0.014 c -0.021 -0.127 -0.058 -0.249 -0.099 -0.372 c -0.046 -0.14 -0.105 -0.271 -0.173 -0.397 c -0.025 -0.046 -0.042 -0.096 -0.07 -0.141 c -0.175 -0.282 -0.404 -0.523 -0.67 -0.713 c -0.004 -0.003 -0.006 -0.006 -0.01 -0.009 c -0.042 -0.029 -0.088 -0.047 -0.13 -0.074 c -0.093 -0.058 -0.186 -0.117 -0.287 -0.162 c -0.069 -0.031 -0.141 -0.05 -0.211 -0.074 c -0.083 -0.029 -0.164 -0.061 -0.251 -0.081 c -0.081 -0.019 -0.164 -0.025 -0.246 -0.035 c -0.079 -0.01 -0.157 -0.026 -0.237 -0.028 c -0.102 -0.003 -0.203 0.009 -0.305 0.018 c -0.058 0.005 -0.115 0.001 -0.173 0.01 c -0.005 0.001 -0.01 0.003 -0.015 0.004 c -0.128 0.021 -0.253 0.059 -0.377 0.1 c -0.11 0.036 -0.213 0.083 -0.315 0.133 c -0.073 0.036 -0.149 0.065 -0.219 0.109 c -0.139 0.087 -0.269 0.186 -0.387 0.297 c 0 0 0 0 -0.001 0.001 c -0.121 0.113 -0.229 0.239 -0.325 0.373 c -0.002 0.003 -0.005 0.005 -0.007 0.008 L 22.965 66.989 c -0.797 1.128 -0.529 2.688 0.598 3.484 c 0.438 0.311 0.942 0.459 1.441 0.459 c 0.784 0 1.556 -0.368 2.043 -1.057 l 22.649 -32.037 l 0.807 5.027 c 0.195 1.212 1.241 2.104 2.469 2.104 h 12.021 c 1.381 0 2.5 -1.119 2.5 -2.5 S 66.375 39.97 64.994 39.97 z" style="stroke: none; stroke-width: 1; stroke-dasharray: none; stroke-linecap: butt; stroke-linejoin: miter; stroke-miterlimit: 10; fill: rgb(255,255,255); fill-rule: nonzero; opacity: 1;" transform=" matrix(1 0 0 1 0 0) " stroke-linecap="round" />
	<path d="M 52.155 52.257 l -4.92 -2.326 c -1.248 -0.59 -2.738 -0.057 -3.329 1.191 c -0.59 1.248 -0.057 2.738 1.192 3.328 l 2.229 1.054 l -8.121 11.485 c -0.797 1.128 -0.529 2.688 0.598 3.484 c 0.438 0.311 0.942 0.459 1.441 0.459 c 0.784 0 1.556 -0.368 2.043 -1.057 l 9.838 -13.916 c 0.427 -0.604 0.564 -1.364 0.377 -2.078 C 53.317 53.167 52.823 52.572 52.155 52.257 z" style="stroke: none; stroke-width: 1; stroke-dasharray: none; stroke-linecap: butt; stroke-linejoin: miter; stroke-miterlimit: 10; fill: rgb(255,255,255); fill-rule: nonzero; opacity: 1;" transform=" matrix(1 0 0 1 0 0) " stroke-linecap="round" />
	<path d="M 29.772 39.787 c 0.438 0.31 0.942 0.458 1.441 0.458 c 0.784 0 1.556 -0.368 2.043 -1.057 l 7.02 -9.929 l 2.31 1.092 c 1.247 0.589 2.738 0.057 3.329 -1.191 c 0.59 -1.249 0.057 -2.739 -1.191 -3.329 l -4.208 -1.99 c -1.098 -0.519 -2.409 -0.174 -3.11 0.817 l -8.231 11.644 C 28.377 37.43 28.645 38.99 29.772 39.787 z" style="stroke: none; stroke-width: 1; stroke-dasharray: none; stroke-linecap: butt; stroke-linejoin: miter; stroke-miterlimit: 10; fill: rgb(255,255,255); fill-rule: nonzero; opacity: 1;" transform=" matrix(1 0 0 1 0 0) " stroke-linecap="round" />
	<ellipse cx="58.089000000000006" cy="24.069" rx="4.999" ry="4.999" style="stroke: none; stroke-width: 1; stroke-dasharray: none; stroke-linecap: butt; stroke-linejoin: miter; stroke-miterlimit: 10; fill: rgb(255,255,255); fill-rule: nonzero; opacity: 1;" transform=" matrix(0.7071 -0.7071 0.7071 0.7071 -0.002 48.1274) "/>
</g>
</svg>